<svg id="Ebene_1" data-name="Ebene 1" xmlns="http://www.w3.org/2000/svg" viewBox="0 0 534.75069 177.81769">
  <defs>
    <style>
      .cls-1, .cls-2, .cls-3 {
        stroke-width: 0px;
      }

      .cls-1, .cls-3 {
        fill: #00a2fa;
      }

      .cls-2 {
        fill: #000;
      }

      .cls-3 {
        opacity: .9;
      }
    </style>
  </defs>
  <g>
    <path class="cls-1" d="M101.55457,88.55499c-3.00977,0-5.84412.76447-8.32025,2.10834l-25.54236-25.5426c-.93799-.9375-2.20947-1.46436-3.53564-1.46436h-29.89331c-2.15759-7.21924-8.85144-12.49988-16.763-12.49988-9.64954,0-17.5,7.85046-17.5,17.5s7.85046,17.5,17.5,17.5c7.91162,0,14.60553-5.28076,16.76306-12.50012h27.82196l24.07794,24.07825c-1.34393,2.47614-2.1084,5.31055-2.1084,8.32037,0,9.64954,7.85052,17.5,17.5,17.5s17.5-7.85046,17.5-17.5-7.85046-17.5-17.5-17.5ZM23.49451,64.16284c.00562.00751.01129.01508.01691.02258.12476.16711.24231.33984.35315.51715.013.02094.02551.04211.03833.06311.10181.16644.19739.3371.28625.51172.0199.03925.03815.07935.05731.11896.07825.16071.15216.32391.21899.49072.02502.06287.04657.12738.06995.1911.05518.14948.10876.29974.15448.45349.02722.09216.0484.18683.07214.2804.03369.13184.06891.263.09546.39758.02588.13232.0426.26776.06146.40253.0144.10242.03357.20331.04382.30701.02368.24268.03723.4884.03723.7373s-.01355.49457-.03723.73724c-.01025.10406-.02942.20526-.04395.30798-.01874.1344-.03552.26947-.06134.40149-.02649.13434-.06171.2652-.09528.39679-.0238.09399-.04498.18896-.07233.28149-.04572.15369-.0993.30383-.15442.45319-.02332.0636-.04486.12811-.06989.19098-.06696.16711-.14099.33057-.21942.49152-.01898.03925-.03711.07898-.05676.11786-.08905.17493-.18469.34589-.28668.51263-.01263.02075-.02502.04163-.03784.06219-.1109.17743-.22845.35028-.35327.51746-.00562.00757-.01129.01508-.01691.02258-.13147.17468-.2699.34393-.41565.50647h0c-1.37317,1.53113-3.36053,2.50012-5.57904,2.50012-4.14215,0-7.5-3.35785-7.5-7.5s3.35785-7.5,7.5-7.5c2.21838,0,4.20563.96887,5.5788,2.49988h0c.14581.16254.28424.33173.41571.50647ZM101.55457,113.55499c-4.14209,0-7.5-3.35785-7.5-7.5,0-.13794.01331-.27246.02063-.40857.20612-3.81476,3.25604-6.86469,7.07068-7.0708.13611-.00739.27075-.02063.40869-.02063,4.14215,0,7.5,3.35785,7.5,7.5s-3.35785,7.5-7.5,7.5Z"/>
    <path class="cls-1" d="M138.36365,57.83295c-3.15692,0-6.11322.85248-8.67316,2.32111l-29.49463-29.49426h-63.03076l-4.48645-4.48627c1.46875-2.56,2.32135-5.51642,2.32135-8.67352C35,7.85046,27.14954,0,17.5,0S0,7.85046,0,17.5s7.85046,17.5,17.5,17.5c3.15698,0,6.11328-.85254,8.67322-2.32117l7.18134,7.18115h63.03076l26.79962,26.79962c-1.46869,2.56-2.32129,5.5163-2.32129,8.67334,0,9.64954,7.85046,17.5,17.5,17.5s17.5-7.85046,17.5-17.5-7.85046-17.5-17.5-17.5ZM21.85864,23.59546c-.32111.22998-.66162.43451-1.01794.61218-.01587.00793-.03204.01532-.04803.02313-.72888.35706-1.52325.60144-2.362.70551-.3056.0379-.61481.06372-.93066.06372-4.14215,0-7.5-3.35785-7.5-7.5s3.35785-7.5,7.5-7.5,7.5,3.35785,7.5,7.5c0,.31616-.02588.62573-.06384.93164-.10419.83862-.34863,1.63293-.70569,2.36169-.00787.01593-.01526.0321-.02319.04803-.17773.35626-.38226.69672-.61224,1.01782-.0069.00964-.01428.01886-.02124.02844-.46887.64807-1.03876,1.2179-1.68689,1.68671-.00958.0069-.01874.01428-.02826.02112ZM138.36365,82.83295c-4.14215,0-7.5-3.35785-7.5-7.5,0-.31604.02582-.62543.06378-.93115.10413-.83881.34863-1.63318.70569-2.36206.00781-.01587.0152-.03198.02307-.04785.1778-.35632.38232-.6969.61237-1.01807.00684-.00952.01416-.01868.02106-.0282.46899-.64832,1.039-1.2182,1.68732-1.68713.00934-.00677.01843-.01398.02777-.02075.32111-.22998.66162-.43457,1.01788-.61224.01617-.00806.03265-.01562.04889-.02356.7287-.35687,1.52283-.6012,2.36133-.70526.30566-.0379.61493-.06372.93085-.06372,4.14215,0,7.5,3.35791,7.5,7.5s-3.35785,7.5-7.5,7.5Z"/>
  </g>
  <g>
    <path class="cls-2" d="M180.51729,121.8598c-.96802-.54291-1.93732-1.04529-2.90955-1.45856-2.89093-1.22803-6.07587-1.84094-9.55908-1.84094-5.46289,0-10.35217,1.32532-14.66577,3.97809-4.31561,2.65277-7.71802,6.33472-10.21338,11.04382-2.49335,4.71118-3.73999,10.11401-3.73999,16.20856,0,5.54364,1.02716,10.41223,3.08765,14.60779,2.05841,4.19556,4.92865,7.46124,8.60852,9.79718,3.68195,2.33386,7.93756,3.50183,12.76678,3.50183,4.35297,0,8.15295-.96918,11.40002-2.90955,2.43536-1.45471,4.38068-3.34454,5.83624-5.67017l.69525,6.79877h14.48767v-79.20587h-15.79437v25.14905ZM177.07344,160.24237c-2.29657,2.53473-5.30554,3.79999-9.02478,3.79999-3.88074,0-6.96838-1.36676-9.26288-4.09821-2.29657-2.73145-3.44385-6.47144-3.44385-11.22192,0-3.48322.61298-6.45074,1.841-8.90674,1.22595-2.4519,2.9696-4.33429,5.22473-5.63892,2.25726-1.3067,4.92865-1.96112,8.0163-1.96112,2.84949,0,5.62024.65442,8.31238,1.96112.60406.29297,1.19672.6217,1.78094.97681v15.23175c0,4.03815-1.14935,7.32458-3.44385,9.85724Z"/>
    <path class="cls-2" d="M250.69838,122.42035c-4.19763-2.57202-9.06616-3.86005-14.60779-3.86005s-10.47021,1.28802-14.78381,3.86005c-4.31561,2.57196-7.68079,6.09656-10.09332,10.56757-2.41669,4.47302-3.62189,9.63977-3.62189,15.49823s1.26526,10.98376,3.79999,15.37811c2.53265,4.39227,6.09454,7.79675,10.68768,10.21136,4.58899,2.41461,9.89453,3.62195,15.91241,3.62195,4.9079,0,9.49896-.75378,13.77527-2.25519,4.27423-1.50342,7.83612-3.60327,10.68768-6.29535l-6.53149-9.97534c-2.45599,1.98181-5.06732,3.46454-7.83813,4.45441-2.77289.98987-5.69897,1.4848-8.78662,1.4848-3.40656,0-6.33472-.5943-8.7887-1.78088-2.45398-1.18872-4.33429-2.90955-5.64099-5.16681-.90259-1.56018-1.48633-3.32544-1.76514-5.28479h40.89386v-3.32373c0-6.17529-1.16797-11.59674-3.50183-16.26862-2.33795-4.67181-5.6037-8.29376-9.79718-10.86572ZM229.26302,133.46417c2.0191-1.22803,4.41296-1.84094,7.18378-1.84094,2.69208,0,5.00732.59222,6.94769,1.78088,1.93835,1.18658,3.4024,2.87024,4.39435,5.04669.60968,1.3446,1.00934,2.88245,1.24359,4.57245h-25.8327c.26569-1.5874.70636-3.06274,1.3728-4.39435,1.10791-2.21582,2.67139-3.93671,4.69049-5.16473Z"/>
    <rect class="cls-1" x="274.80305" y="158.57947" width="18.16968" height="17.33716"/>
    <polygon class="cls-2" points="373.01106 96.71075 353.89302 96.71075 325.15578 131.33887 325.15578 96.71075 308.52895 96.71075 308.52895 175.91663 325.15578 175.91663 325.15578 150.04706 334.01033 139.7594 357.45485 175.91663 377.40541 175.91663 345.20851 128.46997 373.01106 96.71075"/>
    <path class="cls-2" d="M431.49812,160.18231c-3.36719,1.78094-7.06573,2.67139-11.10388,2.67139-4.75055,0-8.94818-1.1286-12.58875-3.38379-3.64056-2.2572-6.49213-5.38214-8.54846-9.38092-2.06049-3.99677-3.08765-8.6106-3.08765-13.83539s1.00854-9.83655,3.02759-13.83325c2.0191-3.99677,4.8479-7.1051,8.49048-9.323,3.64056-2.21576,7.8382-3.32574,12.58875-3.32574,4.19342,0,7.91473.89044,11.16187,2.67346,3.245,1.78094,6.09448,4.49371,8.55054,8.13428l11.16187-10.21344c-3.40448-4.9079-7.8775-8.72864-13.41907-11.46008-5.54163-2.72937-11.67755-4.09613-18.40576-4.09613-5.93713,0-11.38135,1.00848-16.32861,3.02759-4.94934,2.0191-9.22357,4.90997-12.82483,8.66858-3.60327,3.76276-6.41339,8.17572-8.4325,13.24103-2.01697,5.06738-3.02759,10.64832-3.02759,16.74487,0,8.07428,1.74164,15.22076,5.22479,21.43329,3.48315,6.21674,8.27301,11.08527,14.36963,14.60779,6.09448,3.52045,13.06293,5.28485,20.89899,5.28485,6.8877,0,13.10229-1.38751,18.64386-4.15833,5.54163-2.76868,10.13269-6.72607,13.77533-11.87421l-10.80573-9.85522c-2.84949,3.72137-5.95782,6.47144-9.32086,8.25238Z"/>
    <path class="cls-2" d="M529.58394,114.8783c-3.44385-5.85638-8.37244-10.3501-14.78381-13.47711-6.41339-3.12695-14.13147-4.69043-23.15625-4.69043h-29.09546v79.20587h28.97534c9.02478,0,16.76355-1.58215,23.21631-4.75055,6.45068-3.16425,11.40002-7.71808,14.84387-13.65515,3.44385-5.93921,5.16675-13.06293,5.16675-21.37537s-1.7229-15.39673-5.16675-21.25726ZM510.46584,154.65936c-4.55377,4.35498-10.98584,6.53143-19.29822,6.53143h-11.99231v-49.75629h11.75623c8.38898,0,14.8811,2.15778,19.47424,6.47137,4.59106,4.31775,6.88763,10.43292,6.88763,18.34772,0,7.91687-2.27582,14.0528-6.82758,18.40576Z"/>
  </g>
  <g>
    <path class="cls-3" d="M249.31622,28.46509c-12.14899,0-23.8501,2.94452-34.36053,8.5882C198.54279,14.33728,172.09412.59802,143.68732.59802c-22.82489,0-43.64374,8.74683-59.28638,23.06177h16.10925c12.3595-8.2467,27.20416-13.06177,43.17712-13.06177,29.35614,0,54.90918,16.24469,68.18854,40.22864,10.46045-7.7644,23.41248-12.36157,37.44037-12.36157,26.27594,0,48.77679,16.12122,58.18011,39.00745h10.66766c-9.91107-28.49359-37.02081-49.00745-68.84778-49.00745Z"/>
    <path class="cls-1" d="M71.50989,59.1853c1.75482-4.3161,3.88611-8.43555,6.35187-12.32532h-11.57013c-1.70422,3.15497-3.22009,6.4256-4.53467,9.79639h2.39935c2.69916,0,5.25677.89484,7.35358,2.52893Z"/>
    <path class="cls-3" d="M69.42828,167.81769c-18.35431,0-33.23358-14.87921-33.23358-33.23352v-.00006c0-17.49567,13.52234-31.823,30.68402-33.12653-.7063-4.21637-1.09308-8.54095-1.09308-12.95795,0-.40662.02441-.80719.03064-1.21234l-6.6308-6.63092h-3.04596c-.22968,2.5849-.35388,5.19965-.35388,7.84326,0,1.66052.04913,3.33228.14691,5.00983-6.87341,2.25317-13.11536,6.22015-18.1485,11.62305-7.47351,8.02258-11.58936,18.48199-11.58936,29.4516,0,23.83905,19.39453,43.23358,43.23358,43.23358h52.82947v-10h-52.82947Z"/>
  </g>
</svg>