<?xml version="1.0" encoding="utf-8"?>
<!-- Generator: Adobe Illustrator 16.0.0, SVG Export Plug-In . SVG Version: 6.00 Build 0)  -->
<!DOCTYPE svg PUBLIC "-//W3C//DTD SVG 1.0//EN" "http://www.w3.org/TR/2001/REC-SVG-20010904/DTD/svg10.dtd">
<svg version="1.0" id="Layer_1" xmlns="http://www.w3.org/2000/svg" xmlns:xlink="http://www.w3.org/1999/xlink" x="0px" y="0px"
	 width="800px" height="800px" viewBox="0 0 800 800" enable-background="new 0 0 800 800" xml:space="preserve">
<g>
	<path fill="#6FAA46" d="M489.105,472.742c0-7.482,6.07-13.547,13.555-13.547c7.48,0,13.551,6.064,13.551,13.547
		c0,7.484-6.07,13.549-13.551,13.549C495.176,486.291,489.105,480.227,489.105,472.742 M617.293,254.518
		c0,7.483,6.07,13.548,13.553,13.548s13.555-6.064,13.555-13.548c0-7.482-6.072-13.553-13.555-13.553
		S617.293,247.036,617.293,254.518 M617.293,290.887c0,7.483,6.07,13.547,13.553,13.547s13.555-6.064,13.555-13.547
		c0-7.483-6.072-13.548-13.555-13.548S617.293,283.404,617.293,290.887 M617.293,327.258c0,7.479,6.07,13.553,13.553,13.553
		s13.555-6.073,13.555-13.553c0-7.478-6.072-13.548-13.555-13.548C623.363,313.708,617.293,319.779,617.293,327.258 M617.293,363.63
		c0,7.483,6.07,13.547,13.553,13.547s13.555-6.064,13.555-13.547c0-7.482-6.072-13.547-13.555-13.547
		S617.293,356.148,617.293,363.63 M617.293,399.999c0,7.484,6.07,13.554,13.553,13.554s13.555-6.07,13.555-13.554
		c0-7.477-6.072-13.547-13.555-13.547S617.293,392.522,617.293,399.999 M617.293,436.377c0,7.475,6.07,13.545,13.553,13.545
		s13.555-6.07,13.555-13.545c0-7.482-6.072-13.557-13.555-13.557S617.293,428.889,617.293,436.377 M617.293,472.742
		c0,7.484,6.07,13.549,13.553,13.549s13.555-6.064,13.555-13.549c0-7.482-6.072-13.547-13.555-13.547
		S617.293,465.26,617.293,472.742 M617.293,509.113c0,7.48,6.07,13.553,13.553,13.553s13.555-6.072,13.555-13.553
		c0-7.475-6.072-13.547-13.555-13.547S617.293,501.639,617.293,509.113 M617.293,545.488c0,7.482,6.07,13.547,13.553,13.547
		s13.555-6.064,13.555-13.547c0-7.484-6.072-13.553-13.555-13.553C623.363,531.93,617.293,538.004,617.293,545.488 M651.053,272.7
		c0,7.484,6.064,13.554,13.547,13.554c7.49,0,13.555-6.07,13.555-13.554c0-7.475-6.064-13.546-13.555-13.546
		C657.117,259.151,651.053,265.222,651.053,272.7 M651.053,309.073c0,7.483,6.064,13.548,13.547,13.548
		c7.49,0,13.555-6.064,13.555-13.548c0-7.482-6.064-13.553-13.555-13.553C657.117,295.521,651.053,301.591,651.053,309.073
		 M651.053,345.444c0,7.483,6.064,13.554,13.547,13.554c7.49,0,13.555-6.071,13.555-13.554c0-7.484-6.064-13.548-13.555-13.548
		C657.117,331.896,651.053,337.96,651.053,345.444 M651.053,381.819c0,7.476,6.064,13.547,13.547,13.547
		c7.49,0,13.555-6.071,13.555-13.547c0-7.483-6.064-13.554-13.555-13.554C657.117,368.263,651.053,374.334,651.053,381.819
		 M651.053,418.188c0,7.479,6.064,13.549,13.547,13.549c7.49,0,13.555-6.07,13.555-13.549c0-7.482-6.064-13.547-13.555-13.547
		C657.117,404.641,651.053,410.705,651.053,418.188 M651.053,454.557c0,7.482,6.064,13.553,13.547,13.553
		c7.49,0,13.555-6.07,13.555-13.553c0-7.479-6.064-13.547-13.555-13.547C657.117,441.01,651.053,447.078,651.053,454.557
		 M651.053,490.932c0,7.482,6.064,13.547,13.547,13.547c7.49,0,13.555-6.064,13.555-13.547s-6.064-13.555-13.555-13.555
		C657.117,477.377,651.053,483.445,651.053,490.932 M651.053,527.299c0,7.482,6.064,13.547,13.547,13.547
		c7.49,0,13.555-6.064,13.555-13.547s-6.064-13.547-13.555-13.547C657.117,513.752,651.053,519.816,651.053,527.299 M683.02,290.887
		c0,7.483,6.07,13.547,13.553,13.547c7.484,0,13.555-6.064,13.555-13.547c0-7.483-6.07-13.548-13.555-13.548
		C689.09,277.339,683.02,283.404,683.02,290.887 M683.02,327.258c0,7.479,6.07,13.553,13.553,13.553
		c7.484,0,13.555-6.073,13.555-13.553c0-7.478-6.07-13.548-13.555-13.548C689.09,313.71,683.02,319.779,683.02,327.258
		 M683.02,363.63c0,7.483,6.07,13.547,13.553,13.547c7.484,0,13.555-6.064,13.555-13.547c0-7.482-6.07-13.547-13.555-13.547
		C689.09,350.083,683.02,356.148,683.02,363.63 M683.02,399.999c0,7.484,6.07,13.554,13.553,13.554
		c7.484,0,13.555-6.07,13.555-13.554c0-7.477-6.07-13.547-13.555-13.547C689.09,386.451,683.02,392.522,683.02,399.999
		 M683.02,436.377c0,7.475,6.07,13.545,13.553,13.545c7.484,0,13.555-6.07,13.555-13.545c0-7.482-6.07-13.557-13.555-13.557
		C689.09,422.82,683.02,428.889,683.02,436.377 M683.02,472.742c0,7.484,6.07,13.549,13.553,13.549
		c7.484,0,13.555-6.064,13.555-13.549c0-7.482-6.07-13.547-13.555-13.547C689.09,459.195,683.02,465.26,683.02,472.742
		 M683.02,509.113c0,7.48,6.07,13.553,13.553,13.553c7.484,0,13.555-6.072,13.555-13.553c0-7.475-6.07-13.547-13.555-13.547
		C689.09,495.566,683.02,501.639,683.02,509.113 M715.404,309.073c0,7.483,6.064,13.548,13.547,13.548
		c7.49,0,13.561-6.064,13.561-13.548c0-7.482-6.07-13.553-13.561-13.553C721.471,295.521,715.404,301.591,715.404,309.073
		 M715.404,345.444c0,7.483,6.064,13.554,13.547,13.554c7.49,0,13.561-6.071,13.561-13.554c0-7.484-6.07-13.548-13.561-13.548
		C721.471,331.896,715.404,337.96,715.404,345.444 M715.404,381.819c0,7.476,6.064,13.547,13.547,13.547
		c7.49,0,13.561-6.071,13.561-13.547c0-7.483-6.07-13.554-13.561-13.554C721.471,368.263,715.404,374.334,715.404,381.819
		 M715.404,418.188c0,7.479,6.064,13.549,13.547,13.549c7.49,0,13.561-6.07,13.561-13.549c0-7.482-6.07-13.547-13.561-13.547
		C721.471,404.641,715.404,410.705,715.404,418.188 M715.404,454.557c0,7.482,6.064,13.553,13.547,13.553
		c7.49,0,13.561-6.07,13.561-13.553c0-7.479-6.07-13.547-13.561-13.547C721.471,441.01,715.404,447.078,715.404,454.557
		 M715.404,490.932c0,7.482,6.064,13.547,13.547,13.547c7.49,0,13.561-6.064,13.561-13.547s-6.07-13.555-13.561-13.555
		C721.471,477.377,715.404,483.445,715.404,490.932 M747.893,327.258c0,7.479,6.07,13.553,13.547,13.553
		c7.486,0,13.561-6.073,13.561-13.553c0-7.478-6.074-13.548-13.561-13.548C753.963,313.708,747.893,319.779,747.893,327.258
		 M747.893,363.63c0,7.483,6.07,13.547,13.547,13.547c7.486,0,13.561-6.064,13.561-13.547c0-7.482-6.074-13.547-13.561-13.547
		C753.963,350.083,747.893,356.148,747.893,363.63 M747.893,399.999c0,7.484,6.07,13.554,13.547,13.554
		c7.486,0,13.561-6.07,13.561-13.554c0-7.477-6.074-13.547-13.561-13.547C753.963,386.451,747.893,392.522,747.893,399.999
		 M747.893,436.377c0,7.475,6.07,13.545,13.547,13.545c7.486,0,13.561-6.07,13.561-13.545c0-7.482-6.074-13.557-13.561-13.557
		C753.963,422.82,747.893,428.889,747.893,436.377 M747.893,472.742c0,7.484,6.07,13.549,13.547,13.549
		c7.486,0,13.561-6.064,13.561-13.549c0-7.482-6.074-13.547-13.561-13.547C753.963,459.195,747.893,465.26,747.893,472.742
		 M585.736,272.7c0,7.484,6.064,13.554,13.549,13.554c7.49,0,13.559-6.07,13.559-13.554c0-7.475-6.068-13.546-13.559-13.546
		C591.801,259.151,585.736,265.222,585.736,272.7 M585.736,309.073c0,7.483,6.064,13.548,13.549,13.548
		c7.49,0,13.559-6.064,13.559-13.548c0-7.482-6.068-13.553-13.559-13.553C591.801,295.521,585.736,301.591,585.736,309.073
		 M585.736,345.444c0,7.483,6.064,13.554,13.549,13.554c7.49,0,13.559-6.071,13.559-13.554c0-7.484-6.068-13.548-13.559-13.548
		C591.801,331.896,585.736,337.96,585.736,345.444 M585.736,381.819c0,7.476,6.064,13.547,13.549,13.547
		c7.49,0,13.559-6.071,13.559-13.547c0-7.483-6.068-13.554-13.559-13.554C591.801,368.263,585.736,374.334,585.736,381.819
		 M585.736,418.188c0,7.479,6.064,13.549,13.549,13.549c7.49,0,13.559-6.07,13.559-13.549c0-7.482-6.068-13.547-13.559-13.547
		C591.801,404.641,585.736,410.705,585.736,418.188 M585.736,454.557c0,7.482,6.064,13.553,13.549,13.553
		c7.49,0,13.559-6.07,13.559-13.553c0-7.479-6.068-13.547-13.559-13.547C591.801,441.01,585.736,447.078,585.736,454.557
		 M585.736,490.932c0,7.482,6.064,13.547,13.549,13.547c7.49,0,13.559-6.064,13.559-13.547s-6.068-13.555-13.559-13.555
		C591.801,477.377,585.736,483.445,585.736,490.932 M585.736,527.299c0,7.482,6.064,13.547,13.549,13.547
		c7.49,0,13.559-6.064,13.559-13.547s-6.068-13.547-13.559-13.547C591.801,513.752,585.736,519.816,585.736,527.299
		 M553.621,290.887c0,7.483,6.07,13.547,13.555,13.547c7.488,0,13.553-6.064,13.553-13.547c0-7.483-6.064-13.548-13.553-13.548
		C559.691,277.339,553.621,283.404,553.621,290.887 M553.621,327.258c0,7.479,6.07,13.553,13.555,13.553
		c7.488,0,13.553-6.073,13.553-13.553c0-7.478-6.064-13.548-13.553-13.548C559.691,313.708,553.621,319.779,553.621,327.258
		 M553.621,363.63c0,7.483,6.07,13.547,13.555,13.547c7.488,0,13.553-6.064,13.553-13.547c0-7.482-6.064-13.547-13.553-13.547
		C559.691,350.083,553.621,356.148,553.621,363.63 M553.621,399.999c0,7.484,6.07,13.554,13.555,13.554
		c7.488,0,13.553-6.07,13.553-13.554c0-7.477-6.064-13.547-13.553-13.547C559.691,386.451,553.621,392.522,553.621,399.999
		 M553.621,472.742c0,7.484,6.07,13.549,13.555,13.549c7.488,0,13.553-6.064,13.553-13.549c0-7.482-6.064-13.547-13.553-13.547
		C559.691,459.195,553.621,465.26,553.621,472.742 M553.621,509.113c0,7.48,6.07,13.553,13.555,13.553
		c7.488,0,13.553-6.072,13.553-13.553c0-7.475-6.064-13.547-13.553-13.547C559.691,495.566,553.621,501.639,553.621,509.113
		 M520.834,309.073c0,7.483,6.066,13.548,13.547,13.548c7.49,0,13.547-6.064,13.547-13.548c0-7.482-6.057-13.553-13.547-13.553
		C526.9,295.521,520.834,301.591,520.834,309.073 M520.834,345.444c0,7.483,6.066,13.554,13.547,13.554
		c7.49,0,13.547-6.071,13.547-13.554c0-7.484-6.057-13.548-13.547-13.548C526.9,331.896,520.834,337.96,520.834,345.444
		 M520.834,381.819c0,7.476,6.066,13.547,13.547,13.547c7.49,0,13.547-6.071,13.547-13.547c0-7.483-6.057-13.554-13.547-13.554
		C526.9,368.263,520.834,374.334,520.834,381.819 M520.834,418.188c0,7.479,6.066,13.549,13.547,13.549
		c7.49,0,13.547-6.07,13.547-13.549c0-7.482-6.057-13.547-13.547-13.547C526.9,404.641,520.834,410.705,520.834,418.188
		 M520.834,454.557c0,7.482,6.066,13.553,13.547,13.553c7.49,0,13.547-6.07,13.547-13.553c0-7.479-6.057-13.547-13.547-13.547
		C526.9,441.01,520.834,447.078,520.834,454.557 M520.834,490.932c0,7.482,6.066,13.547,13.547,13.547
		c7.49,0,13.547-6.064,13.547-13.547s-6.057-13.555-13.547-13.555C526.9,477.377,520.834,483.445,520.834,490.932 M489.105,327.258
		c0,7.479,6.07,13.553,13.555,13.553c7.48,0,13.551-6.073,13.551-13.553c0-7.478-6.07-13.548-13.551-13.548
		C495.176,313.71,489.105,319.779,489.105,327.258 M489.105,363.63c0,7.483,6.07,13.547,13.555,13.547
		c7.48,0,13.551-6.064,13.551-13.547c0-7.482-6.07-13.547-13.551-13.547C495.176,350.083,489.105,356.148,489.105,363.63
		 M489.105,399.999c0,7.484,6.07,13.554,13.555,13.554c7.48,0,13.551-6.07,13.551-13.554c0-7.477-6.07-13.547-13.551-13.547
		C495.176,386.451,489.105,392.522,489.105,399.999 M489.105,436.377c0,7.475,6.07,13.545,13.555,13.545
		c7.48,0,13.551-6.07,13.551-13.545c0-7.482-6.07-13.557-13.551-13.557C495.176,422.82,489.105,428.889,489.105,436.377"/>
	<path fill="#E2001A" d="M553.621,436.377c0-7.482,6.07-13.557,13.555-13.557c7.488,0,13.553,6.074,13.553,13.557
		c0,7.475-6.064,13.545-13.553,13.545C559.691,449.922,553.621,443.852,553.621,436.377"/>
	<path d="M106.94,453.613H25V342.6h80.855v13.297H39.991v34.009h60.764v13.303H39.991v37.105h66.95V453.613z M232.634,453.613
		v-111.02h-21.34l-31.538,93.857h-0.31l-31.697-93.857h-21.491v111.02h14.531v-65.559c0-3.248-0.311-17.312-0.311-27.518h0.311
		l31.229,93.077h14.849l31.234-93.236h0.31c0,10.365-0.31,24.429-0.31,27.677v65.559H232.634z M271.89,440.781h32.007
		c15.615,0,23.502-7.895,23.502-20.262c0-15.615-13.77-18.705-25.979-18.705h-29.529v38.967H271.89z M256.899,342.6h48.85
		c20.717,0,31.39,12.83,31.39,27.986c0,7.269-2.631,17.476-14.843,23.193c7.272,2.937,20.091,8.036,20.091,27.059
		c0,17.773-13.131,32.775-37.722,32.775h-47.766V342.6z M271.89,389.598h27.058c14.379,0,23.193-4.331,23.193-17.93
		c0-10.365-6.337-16.238-23.042-16.238H271.89V389.598z M375.467,342.6h-14.992v111.013h71.275v-13.299h-56.283V342.6L375.467,342.6
		z"/>
</g>
</svg>
